# xmcd
#
# Track frame offsets:
#	150
#	11837
#	22457
#	34057
#	43682
#	54187
#	63275
#	73537
#	83105
#	92977
#	106067
#	117387
#	129022
#	140865
#	152822
#	164167
#
# Disc length: 2346 seconds
#
# Revision: 1
# Processed by: cddbd v1.4PL0 Copyright (c) Steve Scherf et al.
# Submitted via: audiograbber 1.80.04
#
DISCID=df092810
DTITLE=Jim Reeves - The Hit Collection
DYEAR=1900
DGENRE=
TTITLE0=Welcome To My World
TTITLE1=He'll Have To Go
TTITLE2=I Missed You
TTITLE3=Billy Bayou
TTITLE4=Am I Losing You
TTITLE5=Home
TTITLE6=Partners
TTITLE7=Need Me
TTITLE8=Blue Boy
TTITLE9=Four Walls
TTITLE10=According To My Heart
TTITLE11=Younder Comes A Sucker
TTITLE12=Where Does A Broken Heart Go
TTITLE13=Mexican Joe
TTITLE14=My Rambling Heart
TTITLE15=The Padre Of Old San Antone
EXTD=
EXTT0=
EXTT1=
EXTT2=
EXTT3=
EXTT4=
EXTT5=
EXTT6=
EXTT7=
EXTT8=
EXTT9=
EXTT10=
EXTT11=
EXTT12=
EXTT13=
EXTT14=
EXTT15=
PLAYORDER=
